<?xml version="1.0" encoding="UTF-8" standalone="no"?>
<svg
   xml:space="preserve"
   width="256"
   height="256"
   version="1.0"
   viewBox="0 0 2.4380952 2.4380952"
   id="svg2"
   sodipodi:docname="icon.svg"
   inkscape:version="1.3 (0e150ed6c4, 2023-07-21)"
   xmlns:inkscape="http://www.inkscape.org/namespaces/inkscape"
   xmlns:sodipodi="http://sodipodi.sourceforge.net/DTD/sodipodi-0.dtd"
   xmlns="http://www.w3.org/2000/svg"
   xmlns:svg="http://www.w3.org/2000/svg"><defs
     id="defs2" /><sodipodi:namedview
     id="namedview2"
     pagecolor="#ffffff"
     bordercolor="#666666"
     borderopacity="1.0"
     inkscape:showpageshadow="2"
     inkscape:pageopacity="0.0"
     inkscape:pagecheckerboard="0"
     inkscape:deskcolor="#d1d1d1"
     inkscape:zoom="1.6054688"
     inkscape:cx="-53.878345"
     inkscape:cy="52.944039"
     inkscape:window-width="1920"
     inkscape:window-height="1018"
     inkscape:window-x="-6"
     inkscape:window-y="-6"
     inkscape:window-maximized="1"
     inkscape:current-layer="svg2" /><path
     fill="#e0e0e0"
     d="M 1.252,0.15 A 0.1,0.1 0 0 0 1.17,0.18 L 0.6,0.75 H 0.318 C 0.225,0.75 0.15,0.817 0.15,0.9 v 0.6 c 0,0.083 0.075,0.15 0.168,0.15 H 0.6 L 1.17,2.22 C 1.236,2.287 1.35,2.24 1.35,2.146 V 0.256 A 0.106,0.106 0 0 0 1.252,0.15"
     paint-order="markers stroke fill"
     id="path1"
     style="fill:#46e090;fill-opacity:1" /><path
     fill="none"
     stroke="#e0e0e0"
     stroke-linecap="round"
     stroke-linejoin="round"
     stroke-width="0.165"
     d="m 1.575,0.675 c 0.45,0.525 0,1.05 0,1.05 m 0.3,-1.35 c 0.675,0.825 0,1.65 0,1.65"
     paint-order="markers stroke fill"
     id="path2"
     style="fill:#46e090;fill-opacity:1;stroke:#46e090;stroke-opacity:1" /></svg>
